STARTFONT 2.1
FONT
CHARS 150
STARTCHAR char32.uni0020
ENCODING 32
DWIDTH 6 0
BBX 0 0 0 0
BITMAP
ENDCHAR
STARTCHAR char33.uni0021
ENCODING 33
DWIDTH 6 0
BBX 1 9 2 0
BITMAP
8000
8000
8000
8000
8000
8000
8000
0000
8000
ENDCHAR
STARTCHAR char34.uni0022
ENCODING 34
DWIDTH 6 0
BBX 3 3 1 6
BITMAP
A000
A000
A000
ENDCHAR
STARTCHAR char35.uni0023
ENCODING 35
DWIDTH 6 0
BBX 5 5 0 2
BITMAP
5000
F800
5000
F800
5000
ENDCHAR
STARTCHAR char36.uni0024
ENCODING 36
DWIDTH 6 0
BBX 5 9 0 0
BITMAP
2000
7000
A800
A000
7000
2800
A800
7000
2000
ENDCHAR
STARTCHAR char37.uni0025
ENCODING 37
DWIDTH 6 0
BBX 5 5 0 2
BITMAP
8800
1000
2000
4000
8800
ENDCHAR
STARTCHAR char38.uni0026
ENCODING 38
DWIDTH 6 0
BBX 5 9 0 0
BITMAP
6000
9000
9000
8000
4000
8000
A800
9000
6800
ENDCHAR
STARTCHAR char39.uni0027
ENCODING 39
DWIDTH 6 0
BBX 1 3 2 6
BITMAP
8000
8000
8000
ENDCHAR
STARTCHAR char40.uni0028
ENCODING 40
DWIDTH 6 0
BBX 3 11 1 -2
BITMAP
2000
4000
8000
8000
8000
8000
8000
8000
8000
4000
2000
ENDCHAR
STARTCHAR char41.uni0029
ENCODING 41
DWIDTH 6 0
BBX 3 11 1 -2
BITMAP
8000
4000
2000
2000
2000
2000
2000
2000
2000
4000
8000
ENDCHAR
STARTCHAR char42.uni002A
ENCODING 42
DWIDTH 6 0
BBX 5 5 0 2
BITMAP
2000
A800
7000
A800
2000
ENDCHAR
STARTCHAR char43.uni002B
ENCODING 43
DWIDTH 6 0
BBX 5 5 0 2
BITMAP
2000
2000
F800
2000
2000
ENDCHAR
STARTCHAR char44.uni002C
ENCODING 44
DWIDTH 6 0
BBX 3 3 1 -2
BITMAP
2000
4000
8000
ENDCHAR
STARTCHAR char45.uni002D
ENCODING 45
DWIDTH 6 0
BBX 5 1 0 4
BITMAP
F800
ENDCHAR
STARTCHAR char46.uni002E
ENCODING 46
DWIDTH 6 0
BBX 1 1 2 0
BITMAP
8000
ENDCHAR
STARTCHAR char47.uni002F
ENCODING 47
DWIDTH 6 0
BBX 5 5 0 2
BITMAP
0800
1000
2000
4000
8000
ENDCHAR
STARTCHAR char48.uni0030
ENCODING 48
DWIDTH 6 0
BBX 5 9 0 0
BITMAP
7000
8800
8800
9800
A800
C800
8800
8800
7000
ENDCHAR
STARTCHAR char49.uni0031
ENCODING 49
DWIDTH 6 0
BBX 5 9 0 0
BITMAP
2000
6000
A000
2000
2000
2000
2000
2000
F800
ENDCHAR
STARTCHAR char50.uni0032
ENCODING 50
DWIDTH 6 0
BBX 5 9 0 0
BITMAP
7000
8800
0800
1000
2000
4000
8000
8000
F800
ENDCHAR
STARTCHAR char51.uni0033
ENCODING 51
DWIDTH 6 0
BBX 5 9 0 0
BITMAP
7000
8800
0800
0800
3000
0800
0800
8800
7000
ENDCHAR
STARTCHAR char52.uni0034
ENCODING 52
DWIDTH 6 0
BBX 5 9 0 0
BITMAP
1000
3000
5000
9000
F800
1000
1000
1000
1000
ENDCHAR
STARTCHAR char53.uni0035
ENCODING 53
DWIDTH 6 0
BBX 5 9 0 0
BITMAP
F800
8000
8000
8000
F000
0800
0800
8800
7000
ENDCHAR
STARTCHAR char54.uni0036
ENCODING 54
DWIDTH 6 0
BBX 5 9 0 0
BITMAP
7000
8800
8000
8000
F000
8800
8800
8800
7000
ENDCHAR
STARTCHAR char55.uni0037
ENCODING 55
DWIDTH 6 0
BBX 5 9 0 0
BITMAP
F800
0800
0800
1000
2000
2000
2000
2000
2000
ENDCHAR
STARTCHAR char56.uni0038
ENCODING 56
DWIDTH 6 0
BBX 5 9 0 0
BITMAP
7000
8800
8800
8800
7000
8800
8800
8800
7000
ENDCHAR
STARTCHAR char57.uni0039
ENCODING 57
DWIDTH 6 0
BBX 5 9 0 0
BITMAP
7000
8800
8800
8800
7800
0800
0800
8800
7000
ENDCHAR
STARTCHAR char58.uni003A
ENCODING 58
DWIDTH 6 0
BBX 1 5 2 2
BITMAP
8000
0000
0000
0000
8000
ENDCHAR
STARTCHAR char59.uni003B
ENCODING 59
DWIDTH 6 0
BBX 3 7 1 0
BITMAP
2000
0000
0000
0000
2000
4000
8000
ENDCHAR
STARTCHAR char60.uni003C
ENCODING 60
DWIDTH 6 0
BBX 3 5 1 2
BITMAP
2000
4000
8000
4000
2000
ENDCHAR
STARTCHAR char61.uni003D
ENCODING 61
DWIDTH 6 0
BBX 5 3 0 3
BITMAP
F800
0000
F800
ENDCHAR
STARTCHAR char62.uni003E
ENCODING 62
DWIDTH 6 0
BBX 3 5 1 2
BITMAP
8000
4000
2000
4000
8000
ENDCHAR
STARTCHAR char63.uni003F
ENCODING 63
DWIDTH 6 0
BBX 5 9 0 0
BITMAP
7000
8800
8800
0800
1000
2000
2000
0000
2000
ENDCHAR
STARTCHAR char64.uni0040
ENCODING 64
DWIDTH 6 0
BBX 5 9 0 0
BITMAP
7000
8800
8800
9800
A800
A800
9800
8000
7000
ENDCHAR
STARTCHAR char65.uni0041
ENCODING 65
DWIDTH 6 0
BBX 5 9 0 0
BITMAP
7000
8800
8800
8800
F800
8800
8800
8800
8800
ENDCHAR
STARTCHAR char66.uni0042
ENCODING 66
DWIDTH 6 0
BBX 5 9 0 0
BITMAP
F000
8800
8800
8800
F000
8800
8800
8800
F000
ENDCHAR
STARTCHAR char67.uni0043
ENCODING 67
DWIDTH 6 0
BBX 5 9 0 0
BITMAP
7000
8800
8000
8000
8000
8000
8000
8800
7000
ENDCHAR
STARTCHAR char68.uni0044
ENCODING 68
DWIDTH 6 0
BBX 5 9 0 0
BITMAP
F000
8800
8800
8800
8800
8800
8800
8800
F000
ENDCHAR
STARTCHAR char69.uni0045
ENCODING 69
DWIDTH 6 0
BBX 5 9 0 0
BITMAP
F800
8000
8000
8000
F000
8000
8000
8000
F800
ENDCHAR
STARTCHAR char70.uni0046
ENCODING 70
DWIDTH 6 0
BBX 5 9 0 0
BITMAP
F800
8000
8000
8000
F000
8000
8000
8000
8000
ENDCHAR
STARTCHAR char71.uni0047
ENCODING 71
DWIDTH 6 0
BBX 5 9 0 0
BITMAP
7000
8800
8000
8000
9800
8800
8800
8800
7000
ENDCHAR
STARTCHAR char72.uni0048
ENCODING 72
DWIDTH 6 0
BBX 5 9 0 0
BITMAP
8800
8800
8800
8800
F800
8800
8800
8800
8800
ENDCHAR
STARTCHAR char73.uni0049
ENCODING 73
DWIDTH 6 0
BBX 5 9 0 0
BITMAP
F800
2000
2000
2000
2000
2000
2000
2000
F800
ENDCHAR
STARTCHAR char74.uni004A
ENCODING 74
DWIDTH 6 0
BBX 5 9 0 0
BITMAP
0800
0800
0800
0800
0800
0800
0800
8800
7000
ENDCHAR
STARTCHAR char75.uni004B
ENCODING 75
DWIDTH 6 0
BBX 5 9 0 0
BITMAP
8800
9000
A000
C000
8000
C000
A000
9000
8800
ENDCHAR
STARTCHAR char76.uni004C
ENCODING 76
DWIDTH 6 0
BBX 5 9 0 0
BITMAP
8000
8000
8000
8000
8000
8000
8000
8000
F800
ENDCHAR
STARTCHAR char77.uni004D
ENCODING 77
DWIDTH 6 0
BBX 5 9 0 0
BITMAP
8800
D800
A800
8800
8800
8800
8800
8800
8800
ENDCHAR
STARTCHAR char78.uni004E
ENCODING 78
DWIDTH 6 0
BBX 5 9 0 0
BITMAP
8800
C800
A800
9800
8800
8800
8800
8800
8800
ENDCHAR
STARTCHAR char79.uni004F
ENCODING 79
DWIDTH 6 0
BBX 5 9 0 0
BITMAP
7000
8800
8800
8800
8800
8800
8800
8800
7000
ENDCHAR
STARTCHAR char80.uni0050
ENCODING 80
DWIDTH 6 0
BBX 5 9 0 0
BITMAP
F000
8800
8800
8800
F000
8000
8000
8000
8000
ENDCHAR
STARTCHAR char81.uni0051
ENCODING 81
DWIDTH 6 0
BBX 5 11 0 -2
BITMAP
7000
8800
8800
8800
8800
8800
8800
8800
7000
0800
0800
ENDCHAR
STARTCHAR char82.uni0052
ENCODING 82
DWIDTH 6 0
BBX 5 9 0 0
BITMAP
F000
8800
8800
8800
F000
8800
8800
8800
8800
ENDCHAR
STARTCHAR char83.uni0053
ENCODING 83
DWIDTH 6 0
BBX 5 9 0 0
BITMAP
7000
8800
8000
8000
7000
0800
0800
8800
7000
ENDCHAR
STARTCHAR char84.uni0054
ENCODING 84
DWIDTH 6 0
BBX 5 9 0 0
BITMAP
F800
2000
2000
2000
2000
2000
2000
2000
2000
ENDCHAR
STARTCHAR char85.uni0055
ENCODING 85
DWIDTH 6 0
BBX 5 9 0 0
BITMAP
8800
8800
8800
8800
8800
8800
8800
8800
7000
ENDCHAR
STARTCHAR char86.uni0056
ENCODING 86
DWIDTH 6 0
BBX 5 9 0 0
BITMAP
8800
8800
8800
8800
8800
8800
8800
5000
2000
ENDCHAR
STARTCHAR char87.uni0057
ENCODING 87
DWIDTH 6 0
BBX 5 9 0 0
BITMAP
8800
8800
8800
8800
8800
8800
A800
D800
8800
ENDCHAR
STARTCHAR char88.uni0058
ENCODING 88
DWIDTH 6 0
BBX 5 9 0 0
BITMAP
8800
8800
8800
5000
2000
5000
8800
8800
8800
ENDCHAR
STARTCHAR char89.uni0059
ENCODING 89
DWIDTH 6 0
BBX 5 9 0 0
BITMAP
8800
8800
8800
5000
2000
2000
2000
2000
2000
ENDCHAR
STARTCHAR char90.uni005A
ENCODING 90
DWIDTH 6 0
BBX 5 9 0 0
BITMAP
F800
0800
0800
1000
2000
4000
8000
8000
F800
ENDCHAR
STARTCHAR char91.uni005B
ENCODING 91
DWIDTH 6 0
BBX 3 11 1 -2
BITMAP
E000
8000
8000
8000
8000
8000
8000
8000
8000
8000
E000
ENDCHAR
STARTCHAR char92.uni005C
ENCODING 92
DWIDTH 6 0
BBX 5 5 0 2
BITMAP
8000
4000
2000
1000
0800
ENDCHAR
STARTCHAR char93.uni005D
ENCODING 93
DWIDTH 6 0
BBX 3 11 1 -2
BITMAP
E000
2000
2000
2000
2000
2000
2000
2000
2000
2000
E000
ENDCHAR
STARTCHAR char94.uni005E
ENCODING 94
DWIDTH 6 0
BBX 5 3 0 6
BITMAP
2000
5000
8800
ENDCHAR
STARTCHAR char95.uni005F
ENCODING 95
DWIDTH 6 0
BBX 5 1 0 0
BITMAP
F800
ENDCHAR
STARTCHAR char96.uni0060
ENCODING 96
DWIDTH 6 0
BBX 3 3 1 6
BITMAP
8000
4000
2000
ENDCHAR
STARTCHAR char97.uni0061
ENCODING 97
DWIDTH 6 0
BBX 5 7 0 0
BITMAP
7000
8800
0800
7800
8800
8800
7800
ENDCHAR
STARTCHAR char98.uni0062
ENCODING 98
DWIDTH 6 0
BBX 5 9 0 0
BITMAP
8000
8000
F000
8800
8800
8800
8800
8800
F000
ENDCHAR
STARTCHAR char99.uni0063
ENCODING 99
DWIDTH 6 0
BBX 5 7 0 0
BITMAP
7000
8800
8000
8000
8000
8800
7000
ENDCHAR
STARTCHAR char100.uni0064
ENCODING 100
DWIDTH 6 0
BBX 5 9 0 0
BITMAP
0800
0800
7800
8800
8800
8800
8800
8800
7800
ENDCHAR
STARTCHAR char101.uni0065
ENCODING 101
DWIDTH 6 0
BBX 5 7 0 0
BITMAP
7000
8800
8800
F800
8000
8800
7000
ENDCHAR
STARTCHAR char102.uni0066
ENCODING 102
DWIDTH 6 0
BBX 5 9 0 0
BITMAP
3800
4000
F000
4000
4000
4000
4000
4000
4000
ENDCHAR
STARTCHAR char103.uni0067
ENCODING 103
DWIDTH 6 0
BBX 5 9 0 -2
BITMAP
7000
8800
8800
8800
8800
8800
7800
0800
7000
ENDCHAR
STARTCHAR char104.uni0068
ENCODING 104
DWIDTH 6 0
BBX 5 9 0 0
BITMAP
8000
8000
F000
8800
8800
8800
8800
8800
8800
ENDCHAR
STARTCHAR char105.uni0069
ENCODING 105
DWIDTH 6 0
BBX 5 9 0 0
BITMAP
2000
0000
E000
2000
2000
2000
2000
2000
F800
ENDCHAR
STARTCHAR char106.uni006A
ENCODING 106
DWIDTH 6 0
BBX 5 11 0 -2
BITMAP
0800
0000
3800
0800
0800
0800
0800
0800
0800
8800
7000
ENDCHAR
STARTCHAR char107.uni006B
ENCODING 107
DWIDTH 6 0
BBX 5 9 0 0
BITMAP
8000
8000
8800
9000
A000
C000
A000
9000
8800
ENDCHAR
STARTCHAR char108.uni006C
ENCODING 108
DWIDTH 6 0
BBX 5 9 0 0
BITMAP
E000
2000
2000
2000
2000
2000
2000
2000
F800
ENDCHAR
STARTCHAR char109.uni006D
ENCODING 109
DWIDTH 6 0
BBX 5 7 0 0
BITMAP
5000
A800
A800
A800
A800
A800
A800
ENDCHAR
STARTCHAR char110.uni006E
ENCODING 110
DWIDTH 6 0
BBX 5 7 0 0
BITMAP
F000
8800
8800
8800
8800
8800
8800
ENDCHAR
STARTCHAR char111.uni006F
ENCODING 111
DWIDTH 6 0
BBX 5 7 0 0
BITMAP
7000
8800
8800
8800
8800
8800
7000
ENDCHAR
STARTCHAR char112.uni0070
ENCODING 112
DWIDTH 6 0
BBX 5 9 0 -2
BITMAP
F000
8800
8800
8800
8800
8800
F000
8000
8000
ENDCHAR
STARTCHAR char113.uni0071
ENCODING 113
DWIDTH 6 0
BBX 5 9 0 -2
BITMAP
7800
8800
8800
8800
8800
8800
7800
0800
0800
ENDCHAR
STARTCHAR char114.uni0072
ENCODING 114
DWIDTH 6 0
BBX 5 7 0 0
BITMAP
F000
8800
8000
8000
8000
8000
8000
ENDCHAR
STARTCHAR char115.uni0073
ENCODING 115
DWIDTH 6 0
BBX 5 7 0 0
BITMAP
7000
8800
8000
7000
0800
8800
7000
ENDCHAR
STARTCHAR char116.uni0074
ENCODING 116
DWIDTH 6 0
BBX 5 9 0 0
BITMAP
2000
2000
F800
2000
2000
2000
2000
2000
2000
ENDCHAR
STARTCHAR char117.uni0075
ENCODING 117
DWIDTH 6 0
BBX 5 7 0 0
BITMAP
8800
8800
8800
8800
8800
8800
7000
ENDCHAR
STARTCHAR char118.uni0076
ENCODING 118
DWIDTH 6 0
BBX 5 7 0 0
BITMAP
8800
8800
8800
8800
8800
5000
2000
ENDCHAR
STARTCHAR char119.uni0077
ENCODING 119
DWIDTH 6 0
BBX 5 7 0 0
BITMAP
A800
A800
A800
A800
A800
A800
5000
ENDCHAR
STARTCHAR char120.uni0078
ENCODING 120
DWIDTH 6 0
BBX 5 7 0 0
BITMAP
8800
8800
5000
2000
5000
8800
8800
ENDCHAR
STARTCHAR char121.uni0079
ENCODING 121
DWIDTH 6 0
BBX 5 9 0 -2
BITMAP
8800
8800
8800
8800
8800
8800
7800
0800
7000
ENDCHAR
STARTCHAR char122.uni007A
ENCODING 122
DWIDTH 6 0
BBX 5 7 0 0
BITMAP
F800
0800
1000
2000
4000
8000
F800
ENDCHAR
STARTCHAR char123.uni007B
ENCODING 123
DWIDTH 6 0
BBX 3 11 1 -2
BITMAP
2000
4000
4000
4000
4000
8000
4000
4000
4000
4000
2000
ENDCHAR
STARTCHAR char124.uni007C
ENCODING 124
DWIDTH 6 0
BBX 1 11 2 -2
BITMAP
8000
8000
8000
8000
8000
8000
8000
8000
8000
8000
8000
ENDCHAR
STARTCHAR char125.uni007D
ENCODING 125
DWIDTH 6 0
BBX 3 11 1 -2
BITMAP
8000
4000
4000
4000
4000
2000
4000
4000
4000
4000
8000
ENDCHAR
STARTCHAR char126.uni007E
ENCODING 126
DWIDTH 6 0
BBX 5 3 0 6
BITMAP
4000
A800
1000
ENDCHAR
STARTCHAR quotedblleft.uni201C
ENCODING 8220
DWIDTH 6 0
BBX 5 3 0 6
BITMAP
A000
5000
2800
ENDCHAR
STARTCHAR quotedblright.uni201D
ENCODING 8221
DWIDTH 6 0
BBX 5 3 0 6
BITMAP
2800
5000
A000
ENDCHAR
STARTCHAR logicalnot.uni00AC
ENCODING 172
DWIDTH 6 0
BBX 5 3 0 6
BITMAP
F800
0800
0800
ENDCHAR
STARTCHAR periodcentered.uni00B7
ENCODING 183
DWIDTH 6 0
BBX 1 1 2 4
BITMAP
8000
ENDCHAR
STARTCHAR multiply.uni00D7
ENCODING 215
DWIDTH 6 0
BBX 5 5 0 2
BITMAP
8800
5000
2000
5000
8800
ENDCHAR
STARTCHAR uni27E8.uni27E8
ENCODING 10216
DWIDTH 6 0
BBX 5 11 0 -2
BITMAP
0800
1000
2000
4000
8000
8000
8000
4000
2000
1000
0800
ENDCHAR
STARTCHAR uni27E9.uni27E9
ENCODING 10217
DWIDTH 6 0
BBX 5 11 0 -2
BITMAP
8000
4000
2000
1000
0800
0800
0800
1000
2000
4000
8000
ENDCHAR
STARTCHAR Gamma.uni0393
ENCODING 915
DWIDTH 6 0
BBX 5 9 0 0
BITMAP
F800
8000
8000
8000
8000
8000
8000
8000
8000
ENDCHAR
STARTCHAR uni0394.uni0394
ENCODING 916
DWIDTH 12 0
BBX 9 9 1 0
BITMAP
0800
0800
1400
1400
2200
2200
4100
4100
FF80
ENDCHAR
STARTCHAR Lambda.uni039B
ENCODING 923
DWIDTH 12 0
BBX 9 9 1 0
BITMAP
0800
0800
1400
1400
2200
2200
4100
4100
C180
ENDCHAR
STARTCHAR Pi.uni03A0
ENCODING 928
DWIDTH 6 0
BBX 5 9 0 0
BITMAP
F800
8800
8800
8800
8800
8800
8800
8800
8800
ENDCHAR
STARTCHAR Sigma.uni03A3
ENCODING 931
DWIDTH 6 0
BBX 5 9 0 0
BITMAP
F800
8000
4000
2000
1000
2000
4000
8000
F800
ENDCHAR
STARTCHAR alpha.uni03B1
ENCODING 945
DWIDTH 6 0
BBX 5 7 0 0
BITMAP
6800
9000
9000
9000
9000
9000
6800
ENDCHAR
STARTCHAR beta.uni03B2
ENCODING 946
DWIDTH 6 0
BBX 5 11 0 -2
BITMAP
F000
8800
8800
F000
8800
8800
8800
8800
F000
8000
8000
ENDCHAR
STARTCHAR gamma.uni03B3
ENCODING 947
DWIDTH 6 0
BBX 5 9 0 -2
BITMAP
8800
8800
8800
4800
2800
1000
2000
4000
8000
ENDCHAR
STARTCHAR delta.uni03B4
ENCODING 948
DWIDTH 6 0
BBX 5 9 0 0
BITMAP
7800
8000
7000
8800
8800
8800
8800
8800
7000
ENDCHAR
STARTCHAR epsilon.uni03B5
ENCODING 949
DWIDTH 6 0
BBX 5 7 0 0
BITMAP
7800
8000
8000
7000
8000
8000
7800
ENDCHAR
STARTCHAR theta.uni03B8
ENCODING 952
DWIDTH 6 0
BBX 5 9 0 0
BITMAP
7000
8800
8800
8800
F800
8800
8800
8800
7000
ENDCHAR
STARTCHAR lambda.uni03BB
ENCODING 955
DWIDTH 6 0
BBX 5 9 0 0
BITMAP
8000
8000
8000
4000
2000
5000
8800
8800
8800
ENDCHAR
STARTCHAR uni03BC.uni03BC
ENCODING 956
DWIDTH 6 0
BBX 5 9 0 -2
BITMAP
8800
8800
8800
8800
8800
8800
F000
8000
8000
ENDCHAR
STARTCHAR nu.uni03BD
ENCODING 957
DWIDTH 6 0
BBX 5 7 0 0
BITMAP
8800
8800
8800
8800
9000
A000
C000
ENDCHAR
STARTCHAR pi.uni03C0
ENCODING 960
DWIDTH 6 0
BBX 5 7 0 0
BITMAP
F800
5000
5000
5000
5000
5000
5000
ENDCHAR
STARTCHAR sigma.uni03C3
ENCODING 963
DWIDTH 6 0
BBX 5 7 0 0
BITMAP
7800
9000
9000
9000
9000
9000
6000
ENDCHAR
STARTCHAR tau.uni03C4
ENCODING 964
DWIDTH 6 0
BBX 5 7 0 0
BITMAP
F800
2000
2000
2000
2000
2000
2000
ENDCHAR
STARTCHAR phi.uni03C6
ENCODING 966
DWIDTH 6 0
BBX 5 9 0 0
BITMAP
1000
A800
A800
A800
7000
2000
2000
2000
2000
ENDCHAR
STARTCHAR chi.uni03C7
ENCODING 967
DWIDTH 6 0
BBX 5 9 0 0
BITMAP
0800
0800
8800
5000
2000
5000
8800
8000
8000
ENDCHAR
STARTCHAR psi.uni03C8
ENCODING 968
DWIDTH 6 0
BBX 5 9 0 0
BITMAP
A800
A800
A800
A800
7000
2000
2000
2000
2000
ENDCHAR
STARTCHAR uni2102.uni2102
ENCODING 8450
DWIDTH 6 0
BBX 5 9 0 0
BITMAP
7000
C800
C000
C000
C000
C000
C000
C800
7000
ENDCHAR
STARTCHAR uni2115.uni2115
ENCODING 8469
DWIDTH 6 0
BBX 5 9 0 0
BITMAP
8800
C800
E800
F800
B800
9800
8800
8800
8800
ENDCHAR
STARTCHAR uni211A.uni211A
ENCODING 8474
DWIDTH 6 0
BBX 5 11 0 -2
BITMAP
7000
C800
C800
C800
C800
C800
C800
C800
7000
0800
0800
ENDCHAR
STARTCHAR uni211D.uni211D
ENCODING 8477
DWIDTH 6 0
BBX 5 9 0 0
BITMAP
F000
C800
C800
C800
F000
C800
C800
C800
C800
ENDCHAR
STARTCHAR uni2124.uni2124
ENCODING 8484
DWIDTH 6 0
BBX 5 9 0 0
BITMAP
F800
0800
1800
3800
7000
E000
C000
8000
F800
ENDCHAR
STARTCHAR arrowleft.uni2190
ENCODING 8592
DWIDTH 6 0
BBX 5 3 0 3
BITMAP
4000
B800
4000
ENDCHAR
STARTCHAR arrowright.uni2192
ENCODING 8594
DWIDTH 6 0
BBX 5 3 0 3
BITMAP
1000
E800
1000
ENDCHAR
STARTCHAR arrowboth.uni2194
ENCODING 8596
DWIDTH 6 0
BBX 5 3 0 3
BITMAP
5000
A800
5000
ENDCHAR
STARTCHAR universal.uni2200
ENCODING 8704
DWIDTH 12 0
BBX 9 9 1 0
BITMAP
C180
4100
4100
2200
3E00
1400
1400
0800
0800
ENDCHAR
STARTCHAR partialdiff.uni2202
ENCODING 8706
DWIDTH 6 0
BBX 5 9 0 0
BITMAP
C000
2000
1000
0800
7800
8800
8800
8800
7000
ENDCHAR
STARTCHAR existential.uni2203
ENCODING 8707
DWIDTH 6 0
BBX 5 9 0 0
BITMAP
F800
0800
0800
0800
7800
0800
0800
0800
F800
ENDCHAR
STARTCHAR emptyset.uni2205
ENCODING 8709
DWIDTH 12 0
BBX 9 9 1 0
BITMAP
1C80
2300
4300
4500
4900
5100
6100
6200
9C00
ENDCHAR
STARTCHAR element.uni2208
ENCODING 8712
DWIDTH 6 0
BBX 5 7 0 1
BITMAP
3800
4000
8000
F000
8000
4000
3800
ENDCHAR
STARTCHAR notelement.uni2209
ENCODING 8713
DWIDTH 6 0
BBX 5 9 0 0
BITMAP
2000
3800
6000
A000
F000
A000
6000
3800
2000
ENDCHAR
STARTCHAR uni2218.uni2218
ENCODING 8728
DWIDTH 6 0
BBX 3 3 1 3
BITMAP
4000
A000
4000
ENDCHAR
STARTCHAR infinity.uni221E
ENCODING 8734
DWIDTH 6 0
BBX 5 3 0 3
BITMAP
5000
A800
5000
ENDCHAR
STARTCHAR logicaland.uni2227
ENCODING 8743
DWIDTH 6 0
BBX 5 3 0 3
BITMAP
2000
5000
8800
ENDCHAR
STARTCHAR logicalor.uni2228
ENCODING 8744
DWIDTH 6 0
BBX 5 3 0 3
BITMAP
8800
5000
2000
ENDCHAR
STARTCHAR intersection.uni2229
ENCODING 8745
DWIDTH 6 0
BBX 5 9 0 0
BITMAP
7000
8800
8800
8800
8800
8800
8800
8800
8800
ENDCHAR
STARTCHAR union.uni222A
ENCODING 8746
DWIDTH 6 0
BBX 5 9 0 0
BITMAP
8800
8800
8800
8800
8800
8800
8800
8800
7000
ENDCHAR
STARTCHAR notequal.uni2260
ENCODING 8800
DWIDTH 6 0
BBX 5 5 0 2
BITMAP
2000
F800
2000
F800
2000
ENDCHAR
STARTCHAR equivalence.uni2261
ENCODING 8801
DWIDTH 6 0
BBX 5 5 0 2
BITMAP
F800
0000
F800
0000
F800
ENDCHAR
STARTCHAR lessequal.uni2264
ENCODING 8804
DWIDTH 6 0
BBX 3 7 1 0
BITMAP
2000
4000
8000
4000
2000
0000
E000
ENDCHAR
STARTCHAR greaterequal.uni2265
ENCODING 8805
DWIDTH 6 0
BBX 3 7 1 0
BITMAP
8000
4000
2000
4000
8000
0000
E000
ENDCHAR
STARTCHAR propersubset.uni2282
ENCODING 8834
DWIDTH 6 0
BBX 5 7 0 1
BITMAP
3800
4000
8000
8000
8000
4000
3800
ENDCHAR
STARTCHAR reflexsubset.uni2286
ENCODING 8838
DWIDTH 6 0
BBX 5 9 0 -1
BITMAP
3800
4000
8000
8000
8000
4000
3800
0000
7800
ENDCHAR
STARTCHAR uni22C2.uni22C2
ENCODING 8898
DWIDTH 6 0
BBX 5 11 0 -2
BITMAP
7000
8800
8800
8800
8800
8800
8800
8800
8800
8800
8800
ENDCHAR
STARTCHAR uni22C3.uni22C3
ENCODING 8899
DWIDTH 6 0
BBX 5 11 0 -2
BITMAP
8800
8800
8800
8800
8800
8800
8800
8800
8800
8800
7000
ENDCHAR
ENDFONT
